<svg xmlns="http://www.w3.org/2000/svg" xmlns:xlink="http://www.w3.org/1999/xlink" width="500" zoomAndPan="magnify" viewBox="0 0 375 374.999991" height="500" preserveAspectRatio="xMidYMid meet" version="1.0"><defs><g/><clipPath id="e61df02039"><path d="M 0 118.207031 L 101.25 118.207031 L 101.25 256.957031 L 0 256.957031 Z M 0 118.207031 " clip-rule="nonzero"/></clipPath><clipPath id="2bbfeb0eca"><path d="M 274.496094 118.03125 L 374.996094 118.03125 L 374.996094 256.78125 L 274.496094 256.78125 Z M 274.496094 118.03125 " clip-rule="nonzero"/></clipPath><clipPath id="bac017323b"><path d="M 91.933594 61.964844 L 283.183594 61.964844 L 283.183594 313.214844 L 91.933594 313.214844 Z M 91.933594 61.964844 " clip-rule="nonzero"/></clipPath></defs><g clip-path="url(#e61df02039)"><path fill="#20ad65" d="M 0.0585938 193.253906 L 101.191406 256.957031 L 101.191406 222.910156 L 45.449219 187.582031 L 101.191406 152.257812 L 101.191406 118.207031 L 0.0585938 181.914062 Z M 0.0585938 193.253906 " fill-opacity="1" fill-rule="nonzero"/></g><g clip-path="url(#2bbfeb0eca)"><path fill="#20ad65" d="M 374.933594 181.738281 L 274.5625 118.03125 L 274.5625 152.082031 L 329.886719 187.40625 L 274.5625 222.734375 L 274.5625 256.78125 L 374.933594 193.078125 Z M 374.933594 181.738281 " fill-opacity="1" fill-rule="nonzero"/></g><g clip-path="url(#bac017323b)"><path fill="#33ff78" d="M 187.558594 61.964844 L 283.179688 61.964844 L 187.558594 313.214844 L 91.933594 313.214844 L 187.558594 61.964844 " fill-opacity="1" fill-rule="nonzero"/></g><g fill="#000000" fill-opacity="1"><g transform="translate(153.816174, 308.143133)"><g><path d="M 4.8125 -13.421875 L 2.671875 -7.4375 C 1.941406 -5.40625 0.992188 -4.039062 -0.171875 -3.34375 C -1.335938 -2.644531 -2.769531 -2.597656 -4.46875 -3.203125 L -12.09375 -5.9375 C -13.789062 -6.550781 -14.875 -7.5 -15.34375 -8.78125 C -15.8125 -10.0625 -15.679688 -11.71875 -14.953125 -13.75 L -12.8125 -19.734375 C -12.707031 -20.035156 -12.554688 -20.234375 -12.359375 -20.328125 C -12.171875 -20.421875 -11.921875 -20.410156 -11.609375 -20.296875 L -8.65625 -19.234375 C -8.34375 -19.117188 -8.144531 -18.96875 -8.0625 -18.78125 C -7.976562 -18.59375 -7.988281 -18.347656 -8.09375 -18.046875 L -9.859375 -13.109375 C -10.046875 -12.609375 -10.078125 -12.195312 -9.953125 -11.875 C -9.828125 -11.5625 -9.5625 -11.332031 -9.15625 -11.1875 L -3.34375 -9.09375 C -2.925781 -8.945312 -2.582031 -8.960938 -2.3125 -9.140625 C -2.039062 -9.316406 -1.8125 -9.65625 -1.625 -10.15625 L 0.140625 -15.09375 C 0.242188 -15.394531 0.390625 -15.59375 0.578125 -15.6875 C 0.765625 -15.78125 1.015625 -15.769531 1.328125 -15.65625 L 4.25 -14.609375 C 4.5625 -14.492188 4.757812 -14.34375 4.84375 -14.15625 C 4.925781 -13.96875 4.914062 -13.722656 4.8125 -13.421875 Z M 4.8125 -13.421875 "/></g></g></g><g fill="#000000" fill-opacity="1"><g transform="translate(159.323635, 292.777207)"><g><path d="M 1.328125 -18.28125 C 2.078125 -18.007812 2.71875 -17.648438 3.25 -17.203125 C 3.789062 -16.765625 4.171875 -16.1875 4.390625 -15.46875 C 4.617188 -14.75 4.679688 -13.851562 4.578125 -12.78125 C 4.472656 -11.71875 4.148438 -10.425781 3.609375 -8.90625 C 3.066406 -7.382812 2.488281 -6.164062 1.875 -5.25 C 1.269531 -4.34375 0.65625 -3.6875 0.03125 -3.28125 C -0.59375 -2.875 -1.25 -2.671875 -1.9375 -2.671875 C -2.632812 -2.671875 -3.359375 -2.804688 -4.109375 -3.078125 L -12.453125 -6.078125 C -13.203125 -6.335938 -13.84375 -6.6875 -14.375 -7.125 C -14.90625 -7.5625 -15.289062 -8.140625 -15.53125 -8.859375 C -15.78125 -9.585938 -15.847656 -10.492188 -15.734375 -11.578125 C -15.617188 -12.660156 -15.289062 -13.960938 -14.75 -15.484375 C -14.207031 -17.003906 -13.632812 -18.210938 -13.03125 -19.109375 C -12.4375 -20.003906 -11.816406 -20.648438 -11.171875 -21.046875 C -10.523438 -21.453125 -9.859375 -21.65625 -9.171875 -21.65625 C -8.484375 -21.664062 -7.765625 -21.539062 -7.015625 -21.28125 Z M -3 -8.9375 C -2.675781 -8.820312 -2.359375 -8.847656 -2.046875 -9.015625 C -1.742188 -9.179688 -1.4375 -9.707031 -1.125 -10.59375 C -0.800781 -11.476562 -0.707031 -12.082031 -0.84375 -12.40625 C -0.976562 -12.726562 -1.207031 -12.945312 -1.53125 -13.0625 L -8.125 -15.421875 C -8.4375 -15.535156 -8.742188 -15.507812 -9.046875 -15.34375 C -9.347656 -15.175781 -9.660156 -14.648438 -9.984375 -13.765625 C -10.296875 -12.878906 -10.382812 -12.273438 -10.25 -11.953125 C -10.125 -11.628906 -9.90625 -11.410156 -9.59375 -11.296875 Z M -3 -8.9375 "/></g></g></g><g fill="#000000" fill-opacity="1"><g transform="translate(165.787012, 274.74426)"><g><path d="M 3.875 -10.8125 L 0.921875 -2.578125 C 0.804688 -2.265625 0.65625 -2.0625 0.46875 -1.96875 C 0.289062 -1.875 0.046875 -1.882812 -0.265625 -2 L -16.125 -7.6875 C -16.4375 -7.800781 -16.640625 -7.953125 -16.734375 -8.140625 C -16.828125 -8.328125 -16.816406 -8.578125 -16.703125 -8.890625 L -13.75 -17.125 C -13.019531 -19.164062 -12.066406 -20.535156 -10.890625 -21.234375 C -9.722656 -21.929688 -8.296875 -21.976562 -6.609375 -21.375 L 1.046875 -18.625 C 2.742188 -18.019531 3.820312 -17.078125 4.28125 -15.796875 C 4.738281 -14.515625 4.601562 -12.851562 3.875 -10.8125 Z M -10.34375 -11.890625 L -2.03125 -8.90625 L -0.984375 -11.8125 C -0.847656 -12.195312 -0.84375 -12.519531 -0.96875 -12.78125 C -1.09375 -13.039062 -1.363281 -13.25 -1.78125 -13.40625 L -7.71875 -15.53125 C -8.132812 -15.675781 -8.46875 -15.6875 -8.71875 -15.5625 C -8.96875 -15.4375 -9.160156 -15.179688 -9.296875 -14.796875 Z M -10.34375 -11.890625 "/></g></g></g><g fill="#000000" fill-opacity="1"><g transform="translate(172.329316, 256.491102)"><g><path d="M 5 -13.921875 L 0.921875 -2.578125 C 0.804688 -2.265625 0.65625 -2.0625 0.46875 -1.96875 C 0.289062 -1.875 0.046875 -1.882812 -0.265625 -2 L -16.125 -7.6875 C -16.4375 -7.800781 -16.640625 -7.953125 -16.734375 -8.140625 C -16.828125 -8.328125 -16.816406 -8.578125 -16.703125 -8.890625 L -12.625 -20.234375 C -12.519531 -20.546875 -12.367188 -20.75 -12.171875 -20.84375 C -11.984375 -20.9375 -11.734375 -20.925781 -11.421875 -20.8125 L -8.5625 -19.78125 C -8.257812 -19.675781 -8.0625 -19.523438 -7.96875 -19.328125 C -7.882812 -19.140625 -7.894531 -18.890625 -8 -18.578125 L -10.421875 -11.828125 L -8.53125 -11.15625 L -6.828125 -15.921875 C -6.710938 -16.234375 -6.5625 -16.429688 -6.375 -16.515625 C -6.1875 -16.609375 -5.941406 -16.601562 -5.640625 -16.5 L -3.03125 -15.5625 C -2.707031 -15.445312 -2.5 -15.296875 -2.40625 -15.109375 C -2.320312 -14.921875 -2.335938 -14.671875 -2.453125 -14.359375 L -4.15625 -9.59375 L -2.046875 -8.828125 L 0.375 -15.578125 C 0.476562 -15.890625 0.625 -16.085938 0.8125 -16.171875 C 1.007812 -16.265625 1.257812 -16.257812 1.5625 -16.15625 L 4.4375 -15.125 C 4.75 -15.007812 4.945312 -14.859375 5.03125 -14.671875 C 5.113281 -14.484375 5.101562 -14.234375 5 -13.921875 Z M 5 -13.921875 "/></g></g></g><g fill="#000000" fill-opacity="1"><g transform="translate(178.064794, 240.489008)"><g><path d="M 1.359375 -18.34375 C 2.109375 -18.070312 2.75 -17.71875 3.28125 -17.28125 C 3.820312 -16.84375 4.203125 -16.265625 4.421875 -15.546875 C 4.648438 -14.828125 4.710938 -13.9375 4.609375 -12.875 C 4.503906 -11.8125 4.1875 -10.523438 3.65625 -9.015625 C 3.101562 -7.492188 2.523438 -6.28125 1.921875 -5.375 C 1.328125 -4.476562 0.710938 -3.828125 0.078125 -3.421875 C -0.546875 -3.015625 -1.203125 -2.8125 -1.890625 -2.8125 C -2.585938 -2.8125 -3.3125 -2.945312 -4.0625 -3.21875 L -16.171875 -7.5625 C -16.484375 -7.675781 -16.679688 -7.828125 -16.765625 -8.015625 C -16.859375 -8.203125 -16.851562 -8.445312 -16.75 -8.75 L -15.375 -12.609375 C -15.257812 -12.910156 -15.101562 -13.109375 -14.90625 -13.203125 C -14.71875 -13.296875 -14.46875 -13.285156 -14.15625 -13.171875 L -3 -9.171875 C -2.675781 -9.054688 -2.359375 -9.082031 -2.046875 -9.25 C -1.742188 -9.414062 -1.4375 -9.921875 -1.125 -10.765625 C -0.820312 -11.628906 -0.738281 -12.222656 -0.875 -12.546875 C -1.007812 -12.867188 -1.238281 -13.085938 -1.5625 -13.203125 L -12.71875 -17.203125 C -13.03125 -17.316406 -13.226562 -17.46875 -13.3125 -17.65625 C -13.40625 -17.84375 -13.398438 -18.09375 -13.296875 -18.40625 L -11.953125 -22.125 C -11.835938 -22.4375 -11.6875 -22.632812 -11.5 -22.71875 C -11.3125 -22.8125 -11.0625 -22.800781 -10.75 -22.6875 Z M 1.359375 -18.34375 "/></g></g></g><g fill="#000000" fill-opacity="1"><g transform="translate(184.607098, 222.23585)"><g><path d="M -10.625 -11.953125 L -7.5 -10.828125 L -6.84375 -12.671875 C -6.695312 -13.085938 -6.703125 -13.410156 -6.859375 -13.640625 C -7.023438 -13.867188 -7.273438 -14.046875 -7.609375 -14.171875 L -8.4375 -14.46875 C -8.769531 -14.582031 -9.070312 -14.601562 -9.34375 -14.53125 C -9.613281 -14.457031 -9.820312 -14.210938 -9.96875 -13.796875 Z M 2.265625 -6.34375 L 0.921875 -2.578125 C 0.804688 -2.265625 0.65625 -2.0625 0.46875 -1.96875 C 0.289062 -1.875 0.046875 -1.882812 -0.265625 -2 L -16.125 -7.6875 C -16.4375 -7.800781 -16.640625 -7.953125 -16.734375 -8.140625 C -16.828125 -8.328125 -16.816406 -8.578125 -16.703125 -8.890625 L -13.78125 -17.03125 C -13.125 -18.851562 -12.289062 -19.976562 -11.28125 -20.40625 C -10.269531 -20.832031 -9.160156 -20.828125 -7.953125 -20.390625 L -6.828125 -20 C -6.148438 -19.75 -5.609375 -19.429688 -5.203125 -19.046875 C -4.796875 -18.671875 -4.578125 -18.195312 -4.546875 -17.625 C -4.128906 -18.457031 -3.515625 -19.039062 -2.703125 -19.375 C -1.890625 -19.707031 -0.96875 -19.6875 0.0625 -19.3125 L 5.265625 -17.453125 C 5.578125 -17.335938 5.773438 -17.1875 5.859375 -17 C 5.953125 -16.8125 5.941406 -16.5625 5.828125 -16.25 L 4.46875 -12.453125 C 4.351562 -12.140625 4.203125 -11.9375 4.015625 -11.84375 C 3.835938 -11.757812 3.59375 -11.773438 3.28125 -11.890625 L -0.46875 -13.234375 C -0.820312 -13.359375 -1.109375 -13.378906 -1.328125 -13.296875 C -1.554688 -13.222656 -1.734375 -13.019531 -1.859375 -12.6875 L -3.078125 -9.25 L 1.71875 -7.53125 C 2.03125 -7.414062 2.226562 -7.265625 2.3125 -7.078125 C 2.394531 -6.898438 2.378906 -6.65625 2.265625 -6.34375 Z M 2.265625 -6.34375 "/></g></g></g><g fill="#20ad65" fill-opacity="1"><g transform="translate(191.121582, 204.060312)"><g><path d="M 4.8125 -13.421875 L 2.671875 -7.4375 C 1.941406 -5.40625 0.992188 -4.039062 -0.171875 -3.34375 C -1.335938 -2.644531 -2.769531 -2.597656 -4.46875 -3.203125 L -12.09375 -5.9375 C -13.789062 -6.550781 -14.875 -7.5 -15.34375 -8.78125 C -15.8125 -10.0625 -15.679688 -11.71875 -14.953125 -13.75 L -12.8125 -19.734375 C -12.707031 -20.035156 -12.554688 -20.234375 -12.359375 -20.328125 C -12.171875 -20.421875 -11.921875 -20.410156 -11.609375 -20.296875 L -8.65625 -19.234375 C -8.34375 -19.117188 -8.144531 -18.96875 -8.0625 -18.78125 C -7.976562 -18.59375 -7.988281 -18.347656 -8.09375 -18.046875 L -9.859375 -13.109375 C -10.046875 -12.609375 -10.078125 -12.195312 -9.953125 -11.875 C -9.828125 -11.5625 -9.5625 -11.332031 -9.15625 -11.1875 L -3.34375 -9.09375 C -2.925781 -8.945312 -2.582031 -8.960938 -2.3125 -9.140625 C -2.039062 -9.316406 -1.8125 -9.65625 -1.625 -10.15625 L 0.140625 -15.09375 C 0.242188 -15.394531 0.390625 -15.59375 0.578125 -15.6875 C 0.765625 -15.78125 1.015625 -15.769531 1.328125 -15.65625 L 4.25 -14.609375 C 4.5625 -14.492188 4.757812 -14.34375 4.84375 -14.15625 C 4.925781 -13.96875 4.914062 -13.722656 4.8125 -13.421875 Z M 4.8125 -13.421875 "/></g></g></g><g fill="#20ad65" fill-opacity="1"><g transform="translate(196.629044, 188.694386)"><g><path d="M -6.234375 -9.171875 L -7.5 -5.65625 C -7.644531 -5.226562 -7.800781 -4.972656 -7.96875 -4.890625 C -8.144531 -4.816406 -8.445312 -4.847656 -8.875 -4.984375 L -16.125 -7.34375 C -16.539062 -7.488281 -16.789062 -7.640625 -16.875 -7.796875 C -16.957031 -7.960938 -16.921875 -8.257812 -16.765625 -8.6875 L -15.328125 -12.71875 C -15.179688 -13.132812 -15.019531 -13.378906 -14.84375 -13.453125 C -14.675781 -13.535156 -14.390625 -13.492188 -13.984375 -13.328125 L -6.859375 -10.5625 C -6.453125 -10.382812 -6.207031 -10.210938 -6.125 -10.046875 C -6.039062 -9.890625 -6.078125 -9.597656 -6.234375 -9.171875 Z M -6.234375 -9.171875 "/></g></g></g><g fill="#20ad65" fill-opacity="1"><g transform="translate(199.751107, 179.98377)"><g><path d="M 5 -13.921875 L 0.921875 -2.578125 C 0.804688 -2.265625 0.65625 -2.0625 0.46875 -1.96875 C 0.289062 -1.875 0.046875 -1.882812 -0.265625 -2 L -16.125 -7.6875 C -16.4375 -7.800781 -16.640625 -7.953125 -16.734375 -8.140625 C -16.828125 -8.328125 -16.816406 -8.578125 -16.703125 -8.890625 L -12.625 -20.234375 C -12.519531 -20.546875 -12.367188 -20.75 -12.171875 -20.84375 C -11.984375 -20.9375 -11.734375 -20.925781 -11.421875 -20.8125 L -8.5625 -19.78125 C -8.257812 -19.675781 -8.0625 -19.523438 -7.96875 -19.328125 C -7.882812 -19.140625 -7.894531 -18.890625 -8 -18.578125 L -10.421875 -11.828125 L -8.53125 -11.15625 L -6.828125 -15.921875 C -6.710938 -16.234375 -6.5625 -16.429688 -6.375 -16.515625 C -6.1875 -16.609375 -5.941406 -16.601562 -5.640625 -16.5 L -3.03125 -15.5625 C -2.707031 -15.445312 -2.5 -15.296875 -2.40625 -15.109375 C -2.320312 -14.921875 -2.335938 -14.671875 -2.453125 -14.359375 L -4.15625 -9.59375 L -2.046875 -8.828125 L 0.375 -15.578125 C 0.476562 -15.890625 0.625 -16.085938 0.8125 -16.171875 C 1.007812 -16.265625 1.257812 -16.257812 1.5625 -16.15625 L 4.4375 -15.125 C 4.75 -15.007812 4.945312 -14.859375 5.03125 -14.671875 C 5.113281 -14.484375 5.101562 -14.234375 5 -13.921875 Z M 5 -13.921875 "/></g></g></g><g fill="#20ad65" fill-opacity="1"><g transform="translate(205.486584, 163.981676)"><g><path d="M 3.53125 -9.875 L 0.765625 -2.125 C 0.648438 -1.8125 0.5 -1.609375 0.3125 -1.515625 C 0.132812 -1.429688 -0.109375 -1.445312 -0.421875 -1.5625 L -3.296875 -2.59375 C -3.597656 -2.695312 -3.796875 -2.84375 -3.890625 -3.03125 C -3.984375 -3.21875 -3.972656 -3.46875 -3.859375 -3.78125 L -1.5 -10.359375 C -1.425781 -10.578125 -1.4375 -10.765625 -1.53125 -10.921875 C -1.632812 -11.085938 -1.785156 -11.203125 -1.984375 -11.265625 C -2.253906 -11.367188 -2.472656 -11.390625 -2.640625 -11.328125 C -2.816406 -11.265625 -2.945312 -11.125 -3.03125 -10.90625 L -4.859375 -7.4375 C -5.441406 -6.351562 -6.148438 -5.566406 -6.984375 -5.078125 C -7.816406 -4.597656 -8.914062 -4.601562 -10.28125 -5.09375 L -12.859375 -6.015625 C -14.253906 -6.515625 -15.160156 -7.34375 -15.578125 -8.5 C -16.003906 -9.664062 -15.929688 -11.039062 -15.359375 -12.625 L -12.90625 -19.484375 C -12.789062 -19.796875 -12.640625 -19.992188 -12.453125 -20.078125 C -12.265625 -20.171875 -12.015625 -20.160156 -11.703125 -20.046875 L -8.796875 -19 C -8.492188 -18.894531 -8.289062 -18.75 -8.1875 -18.5625 C -8.09375 -18.375 -8.101562 -18.125 -8.21875 -17.8125 L -10.265625 -12.109375 C -10.335938 -11.890625 -10.328125 -11.695312 -10.234375 -11.53125 C -10.140625 -11.375 -9.984375 -11.257812 -9.765625 -11.1875 C -9.566406 -11.113281 -9.367188 -11.101562 -9.171875 -11.15625 C -8.984375 -11.21875 -8.84375 -11.351562 -8.75 -11.5625 L -6.953125 -15.03125 C -6.378906 -16.113281 -5.671875 -16.898438 -4.828125 -17.390625 C -3.992188 -17.878906 -2.898438 -17.878906 -1.546875 -17.390625 L 1.03125 -16.46875 C 2.425781 -15.96875 3.332031 -15.128906 3.75 -13.953125 C 4.164062 -12.785156 4.09375 -11.425781 3.53125 -9.875 Z M 3.53125 -9.875 "/></g></g></g><g fill="#20ad65" fill-opacity="1"><g transform="translate(211.186982, 148.077455)"><g><path d="M 3.59375 -10.015625 L 2.171875 -6.046875 C 2.054688 -5.734375 1.90625 -5.53125 1.71875 -5.4375 C 1.53125 -5.34375 1.28125 -5.351562 0.96875 -5.46875 L -11.0625 -9.78125 L -12.34375 -6.1875 C -12.457031 -5.882812 -12.601562 -5.6875 -12.78125 -5.59375 C -12.96875 -5.5 -13.21875 -5.507812 -13.53125 -5.625 L -16.484375 -6.6875 C -16.796875 -6.800781 -17 -6.953125 -17.09375 -7.140625 C -17.1875 -7.328125 -17.175781 -7.570312 -17.0625 -7.875 L -12.4375 -20.796875 C -12.320312 -21.109375 -12.164062 -21.3125 -11.96875 -21.40625 C -11.78125 -21.5 -11.53125 -21.488281 -11.21875 -21.375 L -8.265625 -20.3125 C -7.953125 -20.195312 -7.753906 -20.046875 -7.671875 -19.859375 C -7.585938 -19.671875 -7.601562 -19.421875 -7.71875 -19.109375 L -9 -15.515625 L 3.03125 -11.203125 C 3.34375 -11.085938 3.539062 -10.9375 3.625 -10.75 C 3.707031 -10.5625 3.695312 -10.316406 3.59375 -10.015625 Z M 3.59375 -10.015625 "/></g></g></g><g fill="#ffffff" fill-opacity="1"><g transform="translate(216.936847, 132.035217)"><g><path d="M 2.234375 -6.21875 L 0.921875 -2.578125 C 0.804688 -2.265625 0.65625 -2.0625 0.46875 -1.96875 C 0.289062 -1.875 0.046875 -1.882812 -0.265625 -2 L -16.125 -7.6875 C -16.4375 -7.800781 -16.640625 -7.953125 -16.734375 -8.140625 C -16.828125 -8.328125 -16.816406 -8.578125 -16.703125 -8.890625 L -15.296875 -12.828125 C -15.203125 -13.078125 -15.066406 -13.265625 -14.890625 -13.390625 C -14.710938 -13.523438 -14.46875 -13.625 -14.15625 -13.6875 L -9.375 -14.46875 C -9.195312 -14.488281 -9.066406 -14.515625 -8.984375 -14.546875 C -8.898438 -14.585938 -8.835938 -14.65625 -8.796875 -14.75 L -8.71875 -14.96875 C -8.6875 -15.070312 -8.691406 -15.160156 -8.734375 -15.234375 C -8.773438 -15.316406 -8.859375 -15.425781 -8.984375 -15.5625 L -12.1875 -19.171875 C -12.394531 -19.410156 -12.523438 -19.632812 -12.578125 -19.84375 C -12.628906 -20.0625 -12.609375 -20.296875 -12.515625 -20.546875 L -11.09375 -24.515625 C -10.976562 -24.835938 -10.828125 -25.039062 -10.640625 -25.125 C -10.453125 -25.21875 -10.203125 -25.207031 -9.890625 -25.09375 L 5.96875 -19.40625 C 6.28125 -19.289062 6.476562 -19.140625 6.5625 -18.953125 C 6.65625 -18.773438 6.644531 -18.523438 6.53125 -18.203125 L 5.171875 -14.4375 C 5.066406 -14.125 4.921875 -13.921875 4.734375 -13.828125 C 4.546875 -13.742188 4.296875 -13.757812 3.984375 -13.875 L -4.640625 -16.96875 L -2.484375 -14.578125 C -2.253906 -14.328125 -2.113281 -14.078125 -2.0625 -13.828125 C -2.019531 -13.578125 -2.054688 -13.296875 -2.171875 -12.984375 L -2.515625 -12.015625 C -2.628906 -11.703125 -2.78125 -11.460938 -2.96875 -11.296875 C -3.164062 -11.140625 -3.429688 -11.039062 -3.765625 -11 L -6.953125 -10.515625 L 1.671875 -7.421875 C 1.984375 -7.304688 2.179688 -7.148438 2.265625 -6.953125 C 2.347656 -6.765625 2.335938 -6.519531 2.234375 -6.21875 Z M 2.234375 -6.21875 "/></g></g></g><g fill="#ffffff" fill-opacity="1"><g transform="translate(224.382445, 111.261853)"><g><path d="M 1.328125 -18.28125 C 2.078125 -18.007812 2.71875 -17.648438 3.25 -17.203125 C 3.789062 -16.765625 4.171875 -16.1875 4.390625 -15.46875 C 4.617188 -14.75 4.679688 -13.851562 4.578125 -12.78125 C 4.472656 -11.71875 4.148438 -10.425781 3.609375 -8.90625 C 3.066406 -7.382812 2.488281 -6.164062 1.875 -5.25 C 1.269531 -4.34375 0.65625 -3.6875 0.03125 -3.28125 C -0.59375 -2.875 -1.25 -2.671875 -1.9375 -2.671875 C -2.632812 -2.671875 -3.359375 -2.804688 -4.109375 -3.078125 L -12.453125 -6.078125 C -13.203125 -6.335938 -13.84375 -6.6875 -14.375 -7.125 C -14.90625 -7.5625 -15.289062 -8.140625 -15.53125 -8.859375 C -15.78125 -9.585938 -15.847656 -10.492188 -15.734375 -11.578125 C -15.617188 -12.660156 -15.289062 -13.960938 -14.75 -15.484375 C -14.207031 -17.003906 -13.632812 -18.210938 -13.03125 -19.109375 C -12.4375 -20.003906 -11.816406 -20.648438 -11.171875 -21.046875 C -10.523438 -21.453125 -9.859375 -21.65625 -9.171875 -21.65625 C -8.484375 -21.664062 -7.765625 -21.539062 -7.015625 -21.28125 Z M -3 -8.9375 C -2.675781 -8.820312 -2.359375 -8.847656 -2.046875 -9.015625 C -1.742188 -9.179688 -1.4375 -9.707031 -1.125 -10.59375 C -0.800781 -11.476562 -0.707031 -12.082031 -0.84375 -12.40625 C -0.976562 -12.726562 -1.207031 -12.945312 -1.53125 -13.0625 L -8.125 -15.421875 C -8.4375 -15.535156 -8.742188 -15.507812 -9.046875 -15.34375 C -9.347656 -15.175781 -9.660156 -14.648438 -9.984375 -13.765625 C -10.296875 -12.878906 -10.382812 -12.273438 -10.25 -11.953125 C -10.125 -11.628906 -9.90625 -11.410156 -9.59375 -11.296875 Z M -3 -8.9375 "/></g></g></g><g fill="#ffffff" fill-opacity="1"><g transform="translate(230.845822, 93.228906)"><g><path d="M 0.78125 -2.171875 C 0.664062 -1.859375 0.515625 -1.65625 0.328125 -1.5625 C 0.148438 -1.476562 -0.09375 -1.492188 -0.40625 -1.609375 L -3.328125 -2.65625 C -3.640625 -2.769531 -3.835938 -2.914062 -3.921875 -3.09375 C -4.015625 -3.28125 -4.003906 -3.53125 -3.890625 -3.84375 L -3.015625 -6.28125 L -11.25 -9.234375 L -12.125 -6.796875 C -12.238281 -6.484375 -12.382812 -6.28125 -12.5625 -6.1875 C -12.75 -6.101562 -13 -6.117188 -13.3125 -6.234375 L -16.265625 -7.296875 C -16.578125 -7.410156 -16.78125 -7.554688 -16.875 -7.734375 C -16.96875 -7.921875 -16.957031 -8.171875 -16.84375 -8.484375 L -13.109375 -18.921875 C -12.992188 -19.234375 -12.84375 -19.429688 -12.65625 -19.515625 C -12.46875 -19.609375 -12.21875 -19.597656 -11.90625 -19.484375 L -8.953125 -18.421875 C -8.640625 -18.304688 -8.4375 -18.15625 -8.34375 -17.96875 C -8.257812 -17.789062 -8.273438 -17.546875 -8.390625 -17.234375 L -9.234375 -14.859375 L -1 -11.90625 L -0.15625 -14.28125 C -0.0390625 -14.59375 0.101562 -14.789062 0.28125 -14.875 C 0.46875 -14.96875 0.71875 -14.957031 1.03125 -14.84375 L 3.953125 -13.796875 C 4.265625 -13.679688 4.460938 -13.53125 4.546875 -13.34375 C 4.640625 -13.164062 4.628906 -12.921875 4.515625 -12.609375 Z M 0.78125 -2.171875 "/></g></g></g><g fill="#000000" fill-opacity="1"><g transform="translate(236.149033, 78.432844)"><g/></g></g></svg>